Coordinates
version=1
nRows=5
nColumns=40
inDegrees=yes

Units are S.I. units (second, meters, Newtons, ...)
Angles are in degrees.

endheader
time	pelvis_tilt	pelvis_list	pelvis_rotation	pelvis_tx	pelvis_ty	pelvis_tz	hip_flexion_r	hip_adduction_r	hip_rotation_r	knee_angle_r	knee_angle_r_beta	ankle_angle_r	subtalar_angle_r	mtp_angle_r	hip_flexion_l	hip_adduction_l	hip_rotation_l	knee_angle_l	knee_angle_l_beta	ankle_angle_l	subtalar_angle_l	mtp_angle_l	lumbar_extension	lumbar_bending	lumbar_rotation	arm_flex_r	arm_add_r	arm_rot_r	elbow_flex_r	pro_sup_r	wrist_flex_r	wrist_dev_r	arm_flex_l	arm_add_l	arm_rot_l	elbow_flex_l	pro_sup_l	wrist_flex_l	wrist_dev_l
     54.03328571	     -0.77783794	     -3.94634630	      6.64941407	      1.22490638	      0.90674916	      0.55989258	     15.60978939	      6.01300198	     -9.33789857	     33.62099895	     33.62099895	     20.67158347	    -13.03674060	     -0.44682361	     32.29697025	    -14.30800204	      4.49360561	     49.01208461	     49.01208461	     16.16829719	    -19.30296660	     19.73559656	    -11.72561934	      4.74448601	      2.92968630	     50.06023737	    -21.43010702	     -9.08936600	     66.16058175	     45.36475779	      0.00000000	      0.00000000	    -15.80859903	    -10.08830238	     12.94563705	     23.32782469	     44.50597008	      0.00000000	      0.00000000
     54.05407143	     -0.64248112	     -3.81683876	      7.69810006	      1.22263424	      0.90621092	      0.55796503	     15.45889083	      5.75186750	     -9.79002727	     33.90168128	     33.90168128	     21.03202467	    -13.73079273	      0.02775860	     32.62277773	    -13.58531171	      4.41148298	     45.37911078	     45.37911078	     14.36446753	    -19.17829342	     16.90446506	    -11.85738139	      4.86333466	      2.70561510	     52.17507277	    -21.23964029	     -8.61473373	     65.48132681	     45.38857909	      0.00000000	      0.00000000	    -17.21161107	    -10.14005295	     14.43117491	     24.80223458	     44.21700540	      0.00000000	      0.00000000
     54.07485714	     -0.68194814	     -3.66604281	      8.70576041	      1.22016642	      0.90619477	      0.55571700	     15.29668772	      5.40565023	    -10.34458070	     33.81481309	     33.81481309	     21.17295934	    -14.18346457	      0.09268500	     33.10972058	    -12.56982719	      4.76017571	     42.02872742	     42.02872742	     13.38925617	    -18.86616214	     17.35135899	    -11.86454036	      4.92638678	      3.01868133	     53.54929194	    -21.61098526	     -8.70117209	     65.86226006	     45.38645694	      0.00000000	      0.00000000	    -17.56921950	     -9.80021010	     14.61237299	     24.89840665	     44.18385459	      0.00000000	      0.00000000
     54.09564286	     -0.64532224	     -3.51987071	      9.60831790	      1.21784829	      0.90689164	      0.55343830	     14.88145916	      5.06385829	    -10.95171894	     33.46244437	     33.46244437	     21.21935021	    -14.32109148	      0.00651547	     33.14694716	    -11.68387332	      4.92772499	     38.33009365	     38.33009365	     10.57690766	    -18.46328399	     13.55117112	    -11.93279660	      4.96433036	      3.04722743	     54.99927149	    -21.64911695	     -8.29426453	     66.03828041	     45.38260252	      0.00000000	      0.00000000	    -18.37638911	     -9.77977094	     16.34697137	     26.37285734	     43.93274537	      0.00000000	      0.00000000
     54.11642857	     -0.76815812	     -3.39513596	     10.40177370	      1.21553754	      0.90810383	      0.55106723	     14.44000938	      4.74625471	    -11.53684783	     32.74244752	     32.74244752	     21.14485591	    -14.29588302	      0.08280211	     33.42353000	    -10.73782157	      5.31934408	     35.22641900	     35.22641900	      9.10430422	    -17.44164933	     13.81595383	    -11.84853588	      4.97251560	      3.28716574	     56.14267842	    -21.65004014	     -8.19155768	     66.55988021	     45.36829412	      0.00000000	      0.00000000	    -18.57397861	     -9.32047293	     16.67096632	     26.60558403	     43.89205873	      0.00000000	      0.00000000
